<?xml version="1.0" encoding="iso-8859-1"?>
<!-- Generator: Adobe Illustrator 19.0.0, SVG Export Plug-In . SVG Version: 6.00 Build 0)  -->
<svg version="1.1" id="Capa_1" xmlns="http://www.w3.org/2000/svg" xmlns:xlink="http://www.w3.org/1999/xlink" x="0px" y="0px"
	 viewBox="0 0 480 480" style="enable-background:new 0 0 480 480;" xml:space="preserve">
<path style="fill:#57A4FF;" d="M8,72h464V8H8V72z"/>
<path style="fill:#EBE5DD;" d="M8,472h464V72H8V472z M378.56,392H101.44L240,152L378.56,392z M40,408v32V408z"/>
<path style="fill:#ED1C24;" d="M378.56,392L240,152L101.44,392H378.56z"/>
<g>
	<path style="fill:#231F20;" d="M120,432h16v16h-16V432z"/>
	<path style="fill:#231F20;" d="M152,432h16v16h-16V432z"/>
	<path style="fill:#231F20;" d="M184,432h16v16h-16V432z"/>
	<path style="fill:#231F20;" d="M216,432h16v16h-16V432z"/>
	<path style="fill:#231F20;" d="M248,432h16v16h-16V432z"/>
	<path style="fill:#231F20;" d="M280,432h16v16h-16V432z"/>
	<path style="fill:#231F20;" d="M312,432h16v16h-16V432z"/>
	<path style="fill:#231F20;" d="M344,432h16v16h-16V432z"/>
	<path style="fill:#231F20;" d="M376,432h16v16h-16V432z"/>
	<path style="fill:#231F20;" d="M88,432h16v16H88V432z"/>
	<path style="fill:#231F20;" d="M0,0v480h480V0H0z M464,464H16V80h448V464z M16,64V16h448v48H16z"/>
	<path style="fill:#231F20;" d="M88,32h16v16H88V32z"/>
	<path style="fill:#231F20;" d="M56,32h16v16H56V32z"/>
	<path style="fill:#231F20;" d="M24,32h16v16H24V32z"/>
	<path style="fill:#231F20;" d="M232,208h16v128h-16V208z"/>
	<path style="fill:#231F20;" d="M232,352h16v16h-16V352z"/>
	<path style="fill:#231F20;" d="M120,96h16v16h-16V96z"/>
	<path style="fill:#231F20;" d="M152,96h16v16h-16V96z"/>
	<path style="fill:#231F20;" d="M184,96h16v16h-16V96z"/>
	<path style="fill:#231F20;" d="M216,96h16v16h-16V96z"/>
	<path style="fill:#231F20;" d="M248,96h16v16h-16V96z"/>
	<path style="fill:#231F20;" d="M280,96h16v16h-16V96z"/>
	<path style="fill:#231F20;" d="M312,96h16v16h-16V96z"/>
	<path style="fill:#231F20;" d="M344,96h16v16h-16V96z"/>
	<path style="fill:#231F20;" d="M376,96h16v16h-16V96z"/>
	<path style="fill:#231F20;" d="M88,96h16v16H88V96z"/>
	<path style="fill:#231F20;" d="M48,112h24V96H32v40h16V112z"/>
	<path style="fill:#231F20;" d="M432,136h16V96h-40v16h24V136z"/>
	<path style="fill:#231F20;" d="M72,432H48v-24H32v40h40V432z"/>
	<path style="fill:#231F20;" d="M448,408h-16v24h-24v16h40V408z"/>
	<path style="fill:#231F20;" d="M32,152h16v16H32V152z"/>
	<path style="fill:#231F20;" d="M32,184h16v16H32V184z"/>
	<path style="fill:#231F20;" d="M32,216h16v16H32V216z"/>
	<path style="fill:#231F20;" d="M32,248h16v16H32V248z"/>
	<path style="fill:#231F20;" d="M32,280h16v16H32V280z"/>
	<path style="fill:#231F20;" d="M32,312h16v16H32V312z"/>
	<path style="fill:#231F20;" d="M32,344h16v16H32V344z"/>
	<path style="fill:#231F20;" d="M32,376h16v16H32V376z"/>
	<path style="fill:#231F20;" d="M432,152h16v16h-16V152z"/>
	<path style="fill:#231F20;" d="M432,184h16v16h-16V184z"/>
	<path style="fill:#231F20;" d="M432,216h16v16h-16V216z"/>
	<path style="fill:#231F20;" d="M432,248h16v16h-16V248z"/>
	<path style="fill:#231F20;" d="M432,280h16v16h-16V280z"/>
	<path style="fill:#231F20;" d="M432,312h16v16h-16V312z"/>
	<path style="fill:#231F20;" d="M432,344h16v16h-16V344z"/>
	<path style="fill:#231F20;" d="M432,376h16v16h-16V376z"/>
	<path style="fill:#231F20;" d="M120,32h328v16H120V32z"/>
	<path style="fill:#231F20;" d="M240,136L87.576,400h304.848L240,136z M240,168l124.704,216H115.296L240,168z"/>
</g>
<g>
</g>
<g>
</g>
<g>
</g>
<g>
</g>
<g>
</g>
<g>
</g>
<g>
</g>
<g>
</g>
<g>
</g>
<g>
</g>
<g>
</g>
<g>
</g>
<g>
</g>
<g>
</g>
<g>
</g>
</svg>
