<?xml version="1.0" encoding="iso-8859-1"?>
<!-- Generator: Adobe Illustrator 19.0.0, SVG Export Plug-In . SVG Version: 6.00 Build 0)  -->
<svg version="1.1" id="Capa_1" xmlns="http://www.w3.org/2000/svg" xmlns:xlink="http://www.w3.org/1999/xlink" x="0px" y="0px"
	 viewBox="0 0 480 480" style="enable-background:new 0 0 480 480;" xml:space="preserve">
<path style="fill:#FFDA44;" d="M244.424,8c-1.6,0-2.4,0-4,0s-2.4,0-4,0c1.6,0,2.4,0,4,0S242.824,8,244.424,8z"/>
<g>
	<path style="fill:#7ED63E;" d="M246.824,8C246.024,8,246.024,8,246.824,8L246.824,8C246.024,8,246.024,8,246.824,8
		c43.2,3.2,81.6,40.8,104.8,97.6C327.624,48.8,290.024,11.2,246.824,8C246.024,8,246.024,8,246.824,8h-1.6h-0.8c-1.6,0-2.4,0-4,0
		s-2.4,0-4,0h-0.8h-0.8c0,0,0,0-0.8,0c-43.2,3.2-81.6,40.8-104.8,97.6c24-56.8,61.6-94.4,104.8-97.6c0,0,0,0,0.8,0l0,0
		c0,0,0,0-0.8,0c-128,3.2-228.8,110.4-225.6,238.4c3.2,123.2,102.4,222.4,225.6,225.6c0,0,0,0,0.8,0l0,0c0,0,0,0-0.8,0
		c-43.2-3.2-81.6-40.8-104.8-97.6c23.2,56.8,61.6,94.4,104.8,97.6c0,0,0,0,0.8,0h0.8c1.6,0,3.2,0,4.8,0c1.6,0,3.2,0,4.8,0h0.8
		c0,0,0,0,0.8,0c43.2-3.2,81.6-40.8,104.8-97.6c-23.2,56.8-61.6,94.4-104.8,97.6c0,0,0,0-0.8,0l0,0c0,0,0,0,0.8,0
		c128-3.2,228.8-109.6,225.6-238.4C469.224,110.4,370.024,11.2,246.824,8L246.824,8z M420.424,93.6c-12,8.8-25.6,16-39.2,22.4
		C394.824,110.4,408.424,102.4,420.424,93.6z M360.424,104c13.6,0,24,10.4,24,24s-10.4,24-24,24s-24-10.4-24-24
		S346.824,104,360.424,104z M360.424,376c-13.6,0-24-10.4-24-24s10.4-24,24-24s24,10.4,24,24S374.024,376,360.424,376z M381.224,364
		c13.6,6.4,27.2,13.6,39.2,22.4C408.424,377.6,394.824,369.6,381.224,364z M376.424,240c0,29.6-3.2,60-10.4,88.8
		C373.224,300,376.424,269.6,376.424,240h-112c0,13.6-10.4,24-24,24v72c32.8,0,64.8,4,96,12c-31.2-8-64-12.8-96-12l0,0
		c-32.8,0-64.8,4-96,12c0,1.6,0,2.4,0,4c0,9.6-5.6,18.4-15.2,22.4c-2.4,0.8-5.6,1.6-8.8,1.6c-8.8,0-16.8-4.8-20.8-12
		c-13.6,6.4-27.2,13.6-39.2,22.4c12-8.8,25.6-16,39.2-22.4c-2.4-4-3.2-8-3.2-12c0-11.2,7.2-20.8,18.4-23.2
		c-7.2-28.8-10.4-59.2-10.4-88.8l0,0c0-29.6,3.2-60,10.4-88.8c-11.2-2.4-18.4-12-18.4-23.2c0-4,0.8-8,3.2-12
		c-13.6-6.4-27.2-13.6-39.2-22.4c12,8.8,25.6,16,39.2,22.4c4-7.2,12-12,20.8-12c3.2,0,6.4,0.8,8.8,1.6c8.8,4,15.2,12,15.2,22.4
		c0,1.6,0,2.4,0,4c31.2,8,64,12.8,96,12l0,0c32.8,0,64.8-4,96-12c-31.2,8-64,12.8-96,12v72c13.6,0,24,10.4,24,24H376.424
		c0-29.6-3.2-60-10.4-88.8C373.224,180,376.424,210.4,376.424,240L376.424,240z"/>
	<path style="fill:#7ED63E;" d="M216.424,240h-112c0,29.6,3.2,60,10.4,88.8c1.6-0.8,4-0.8,5.6-0.8c12,0,21.6,8.8,24,20
		c31.2-8,64-12.8,96-12v-72C226.824,264,216.424,253.6,216.424,240z"/>
</g>
<g>
	<path style="fill:#FFDA44;" d="M236.424,8h-0.8l0,0H236.424z"/>
	<path style="fill:#FFDA44;" d="M144.424,132c0-1.6,0-2.4,0-4c0-9.6-5.6-18.4-15.2-22.4c-2.4-0.8-5.6-1.6-8.8-1.6
		c-8.8,0-16.8,4.8-20.8,12c-2.4,4-3.2,8-3.2,12c0,11.2,7.2,20.8,18.4,23.2c1.6,0.8,4,0.8,5.6,0.8
		C132.424,152,142.024,143.2,144.424,132z"/>
	<path style="fill:#FFDA44;" d="M240.424,472c-1.6,0-3.2,0-4.8,0l0,0C237.224,472,238.824,472,240.424,472s3.2,0,4.8,0l0,0
		C243.624,472,242.024,472,240.424,472z"/>
	<path style="fill:#FFDA44;" d="M120.424,328c-1.6,0-4,0-5.6,0.8c-11.2,2.4-18.4,12-18.4,23.2c0,4,0.8,8,3.2,12c4,7.2,12,12,20.8,12
		c3.2,0,6.4-0.8,8.8-1.6c8.8-4,15.2-12,15.2-22.4c0-1.6,0-2.4,0-4C142.024,336.8,132.424,328,120.424,328z"/>
</g>
<path style="fill:#7ED63E;" d="M240.424,216v-72c-32.8,0-64.8-4-96-12c-1.6,12-12,20-24,20c-1.6,0-4,0-5.6-0.8
	c-7.2,28.8-10.4,59.2-10.4,88.8h112C216.424,226.4,226.824,216,240.424,216z"/>
<g>
	<path style="fill:#FFDA44;" d="M245.224,8h-0.8H245.224z"/>
	<circle style="fill:#FFDA44;" cx="360.424" cy="128" r="24"/>
	<circle style="fill:#FFDA44;" cx="360.424" cy="352" r="24"/>
	<circle style="fill:#FFDA44;" cx="240.424" cy="240" r="24"/>
</g>
<path style="fill:#231F20;" d="M426.824,88.8L426.824,88.8c-44-54.4-108.8-86.4-178.4-88.8l0,0h-2.4c-3.2,0-6.4,0-9.6,0l0,0h-4l0,0
	c-132.8,4.8-236.8,115.2-232,248c4,126.4,105.6,228,232,232h2.4c1.6,0,3.2,0,4.8,0c1.6,0,3.2,0,4.8,0l0,0h3.2l0,0
	c132.8-4.8,236-115.2,232-248C478.824,179.2,459.624,128.8,426.824,88.8z M464.424,232h-80c-0.8-25.6-3.2-51.2-8.8-76
	c10.4-5.6,16.8-16,16.8-28c0-2.4-0.8-5.6-0.8-8c9.6-4.8,18.4-9.6,27.2-16C446.824,141.6,462.824,185.6,464.424,232z M106.824,120
	c4.8-8,14.4-10.4,21.6-5.6c4.8,3.2,8,8,8,13.6c0,0.8,0,1.6,0,2.4v0.8c-1.6,8-8,13.6-16,13.6c-1.6,0-2.4,0-4-0.8
	c-7.2-1.6-12-8-12-15.2C104.424,124.8,105.224,122.4,106.824,120z M360.424,144c-8.8,0-16-7.2-16-16s7.2-16,16-16s16,7.2,16,16
	S369.224,144,360.424,144z M328.424,125.6c-26.4,6.4-53.6,9.6-80,10.4V16c36.8,4,70.4,35.2,92.8,86.4
	C334.024,108,329.224,116,328.424,125.6z M240.424,256c-8.8,0-16-7.2-16-16c0-8.8,7.2-16,16-16c8.8,0,16,7.2,16,16
	C256.424,248.8,249.224,256,240.424,256z M232.424,16v120c-27.2-0.8-53.6-4-80-10.4c-0.8-8.8-5.6-17.6-12.8-23.2
	C162.824,51.2,195.624,20,232.424,16z M121.224,160c12,0,23.2-8,28-19.2c27.2,7.2,55.2,10.4,83.2,11.2v57.6
	c-11.2,3.2-20,12-23.2,23.2h-96.8C113.224,208,115.624,184,121.224,160z M209.224,248c3.2,11.2,12,20,23.2,23.2V328
	c-28,0.8-56,4-83.2,10.4c-4.8-10.4-16-18.4-28-18.4c-4.8-24-8-48-8.8-72H209.224z M116.424,336.8L116.424,336.8c1.6,0,2.4-0.8,4-0.8
	c8,0,14.4,5.6,16,13.6c0,0.8,0,1.6,0,2.4c0,6.4-4,12-9.6,14.4l0,0c-8,3.2-17.6-0.8-20.8-8.8c-1.6-1.6-1.6-4-1.6-5.6
	C104.424,344.8,109.224,338.4,116.424,336.8z M152.424,354.4c26.4-6.4,52.8-9.6,80-10.4v120c-36.8-4-69.6-35.2-92.8-86.4
	C146.824,372,151.624,364,152.424,354.4z M248.424,464V344c27.2,0.8,53.6,4,80,10.4c0.8,8.8,5.6,17.6,12.8,23.2
	C318.824,428.8,285.224,460,248.424,464z M344.424,352c0-8.8,7.2-16,16-16s16,7.2,16,16s-7.2,16-16,16S344.424,360.8,344.424,352z
	 M359.624,320c-12,0-23.2,7.2-28.8,18.4c-26.4-6.4-54.4-9.6-82.4-10.4v-57.6c11.2-3.2,20-12,23.2-23.2h96.8
	C367.624,272,365.224,296,359.624,320z M271.624,232c-3.2-11.2-12-20-23.2-23.2V152c28-0.8,56-4,83.2-10.4
	c4.8,11.2,16,18.4,28.8,18.4c4.8,24,8,48,8.8,72H271.624z M408.424,92c-8,5.6-16.8,9.6-24.8,14.4c-7.2-8-17.6-11.2-27.2-9.6
	c-11.2-27.2-28.8-51.2-50.4-71.2C345.224,37.6,381.224,60.8,408.424,92z M174.824,25.6c-21.6,19.2-39.2,44-50.4,71.2
	c-0.8-0.8-2.4-0.8-4-0.8c-8.8,0-16.8,4-23.2,10.4c-8.8-4.8-16.8-8.8-24.8-14.4C99.624,60.8,135.624,37.6,174.824,25.6z
	 M62.024,104.8c8.8,5.6,17.6,11.2,27.2,15.2c-4,14.4,3.2,29.6,16,36c-5.6,24.8-8.8,50.4-8.8,76h-80
	C18.024,185.6,34.024,141.6,62.024,104.8z M16.424,248h80c0.8,25.6,3.2,51.2,8.8,76c-12.8,6.4-20,21.6-16,36
	c-9.6,4.8-18.4,9.6-27.2,15.2C34.024,338.4,18.024,294.4,16.424,248z M72.424,388c8-5.6,16.8-9.6,24.8-14.4
	c6.4,6.4,14.4,10.4,23.2,10.4c1.6,0,3.2,0,4-0.8c11.2,27.2,28.8,51.2,50.4,71.2C135.624,442.4,99.624,419.2,72.424,388z
	 M306.024,454.4c21.6-19.2,39.2-44,50.4-71.2c10.4,1.6,20.8-1.6,27.2-9.6c8.8,4,16.8,8.8,24.8,14.4
	C381.224,419.2,345.224,442.4,306.024,454.4z M418.824,375.2c-8.8-5.6-17.6-11.2-27.2-16c0.8-2.4,0.8-5.6,0.8-8
	c0-12-6.4-22.4-16.8-28c5.6-24.8,8.8-50.4,8.8-76h80C462.824,294.4,446.824,338.4,418.824,375.2z"/>
<g>
</g>
<g>
</g>
<g>
</g>
<g>
</g>
<g>
</g>
<g>
</g>
<g>
</g>
<g>
</g>
<g>
</g>
<g>
</g>
<g>
</g>
<g>
</g>
<g>
</g>
<g>
</g>
<g>
</g>
</svg>
