<?xml version="1.0" encoding="iso-8859-1"?>
<!-- Generator: Adobe Illustrator 19.0.0, SVG Export Plug-In . SVG Version: 6.00 Build 0)  -->
<svg version="1.1" id="Capa_1" xmlns="http://www.w3.org/2000/svg" xmlns:xlink="http://www.w3.org/1999/xlink" x="0px" y="0px"
	 viewBox="0 0 480.188 480.188" style="enable-background:new 0 0 480.188 480.188;" xml:space="preserve">
<g>
	<path style="fill:#FFDA44;" d="M136.104,424.12h-128v48h128V424.12z"/>
	<path style="fill:#FFDA44;" d="M304.104,424.12h-128v48h128V424.12z"/>
	<path style="fill:#FFDA44;" d="M344.104,472.12h128v-48h-128V472.12z"/>
	<path style="fill:#FFDA44;" d="M136.104,352.12h-128v48h128V352.12z"/>
	<path style="fill:#FFDA44;" d="M176.104,400.12h128v-48h-128V400.12z"/>
	<path style="fill:#FFDA44;" d="M344.104,400.12h128v-48h-128V400.12z"/>
</g>
<path style="fill:#57A4FF;" d="M472.104,184.12c-0.023-29.306-19.917-54.864-48.32-62.08c-3.133-32.83-30.701-57.904-63.68-57.92
	c-12.334-0.031-24.406,3.557-34.72,10.32c-11.99-47.099-59.891-75.56-106.99-63.57c-31.232,7.951-55.619,32.338-63.57,63.57
	c-10.314-6.763-22.386-10.351-34.72-10.32c-32.979,0.016-60.547,25.09-63.68,57.92c-34.286,8.593-55.114,43.352-46.522,77.638
	c7.147,28.517,32.803,48.498,62.202,48.442h336C443.45,248.12,472.104,219.466,472.104,184.12z"/>
<g>
	<path style="fill:#231F20;" d="M144.104,480.12h-144v-64h144V480.12z M16.104,464.12h112v-32h-112V464.12z"/>
	<path style="fill:#231F20;" d="M312.104,480.12h-144v-64h144V480.12z M184.104,464.12h112v-32h-112V464.12z"/>
	<path style="fill:#231F20;" d="M480.104,480.12h-144v-64h144V480.12z M352.104,464.12h112v-32h-112V464.12z"/>
	<path style="fill:#231F20;" d="M24.104,440.12h16v16h-16V440.12z"/>
	<path style="fill:#231F20;" d="M360.104,440.12h16v16h-16V440.12z"/>
	<path style="fill:#231F20;" d="M192.104,440.12h16v16h-16V440.12z"/>
	<path style="fill:#231F20;" d="M416.104,296.12h-168v-40h160c39.764,0.047,72.038-32.151,72.084-71.916
		c0.036-30.993-19.765-58.531-49.156-68.364c-6.747-39.152-43.956-65.422-83.108-58.674c-6.152,1.06-12.14,2.917-17.812,5.522
		c-18.45-49.706-73.701-75.043-123.407-56.593c-26.204,9.726-46.867,30.39-56.593,56.593c-36.098-16.593-78.813-0.78-95.406,35.318
		c-2.61,5.679-4.47,11.674-5.53,17.834c-37.71,12.616-58.053,53.414-45.436,91.124c9.833,29.392,37.372,49.193,68.364,49.156h160v40
		h-176v48h-56v64h144v-64h-72v-32h160v32h-64v64h144v-64h-64v-32h152v32h-64v64h144v-64h-64V296.12z M16.104,184.12
		c-0.015-25.659,17.41-48.045,42.288-54.328c3.281-0.831,5.684-3.638,6-7.008c2.604-28.789,26.805-50.798,55.712-50.664
		c10.773-0.026,21.317,3.105,30.328,9.008c3.692,2.426,8.653,1.4,11.079-2.293c0.492-0.749,0.855-1.575,1.073-2.443
		c10.916-42.813,54.472-68.671,97.285-57.755c28.37,7.233,50.522,29.386,57.755,57.755c1.077,4.285,5.423,6.886,9.709,5.809
		c0.869-0.218,1.695-0.581,2.443-1.073c9.012-5.903,19.555-9.034,30.328-9.008c28.907-0.134,53.108,21.875,55.712,50.664
		c0.316,3.37,2.719,6.177,6,7.008c30.005,7.501,48.248,37.905,40.747,67.909c-6.244,24.977-28.713,42.479-54.459,42.419h-336
		C41.191,240.085,16.139,215.033,16.104,184.12L16.104,184.12z M128.104,392.12h-112v-32h112V392.12z M296.104,392.12h-112v-32h112
		V392.12z M464.104,392.12h-112v-32h112V392.12z"/>
	<path style="fill:#231F20;" d="M24.104,368.12h16v16h-16V368.12z"/>
	<path style="fill:#231F20;" d="M192.104,368.12h16v16h-16V368.12z"/>
	<path style="fill:#231F20;" d="M360.104,368.12h16v16h-16V368.12z"/>
	<path style="fill:#231F20;" d="M232.104,216.12h16v16h-16V216.12z"/>
	<path style="fill:#231F20;" d="M264.104,216.12h16v16h-16V216.12z"/>
	<path style="fill:#231F20;" d="M296.104,216.12h16v16h-16V216.12z"/>
	<path style="fill:#231F20;" d="M328.104,216.12h16v16h-16V216.12z"/>
	<path style="fill:#231F20;" d="M360.104,216.12h16v16h-16V216.12z"/>
	<path style="fill:#231F20;" d="M392.104,216.12h16v16h-16V216.12z"/>
	<path style="fill:#231F20;" d="M200.104,216.12h16v16h-16V216.12z"/>
	<path style="fill:#231F20;" d="M168.104,216.12h16v16h-16V216.12z"/>
	<path style="fill:#231F20;" d="M136.104,216.12h16v16h-16V216.12z"/>
	<path style="fill:#231F20;" d="M104.104,216.12h16v16h-16V216.12z"/>
	<path style="fill:#231F20;" d="M72.104,216.12h16v16h-16V216.12z"/>
</g>
<g>
</g>
<g>
</g>
<g>
</g>
<g>
</g>
<g>
</g>
<g>
</g>
<g>
</g>
<g>
</g>
<g>
</g>
<g>
</g>
<g>
</g>
<g>
</g>
<g>
</g>
<g>
</g>
<g>
</g>
</svg>
