<?xml version="1.0" encoding="iso-8859-1"?>
<!-- Generator: Adobe Illustrator 19.0.0, SVG Export Plug-In . SVG Version: 6.00 Build 0)  -->
<svg version="1.1" id="Capa_1" xmlns="http://www.w3.org/2000/svg" xmlns:xlink="http://www.w3.org/1999/xlink" x="0px" y="0px"
	 viewBox="0 0 480.212 480.212" style="enable-background:new 0 0 480.212 480.212;" xml:space="preserve">
<path style="fill:#57A4FF;" d="M472.128,184.072c-0.023-29.306-19.917-54.864-48.32-62.08c-3.133-32.83-30.701-57.904-63.68-57.92
	c-12.334-0.031-24.406,3.557-34.72,10.32c-11.99-47.099-59.891-75.56-106.99-63.57c-31.232,7.951-55.619,32.338-63.57,63.57
	c-10.314-6.763-22.386-10.351-34.72-10.32c-32.979,0.016-60.547,25.09-63.68,57.92c-34.286,8.593-55.114,43.352-46.522,77.638
	c7.147,28.517,32.803,48.498,62.202,48.442h336C443.474,248.072,472.128,219.419,472.128,184.072z"/>
<g>
	<path style="fill:#FFDA44;" d="M240.128,472.073c13.255,0,24-10.745,24-24s-10.745-24-24-24c-13.255,0-24,10.745-24,24
		S226.873,472.073,240.128,472.073L240.128,472.073z"/>
	<path style="fill:#FFDA44;" d="M448.128,424.073c13.255,0,24-10.745,24-24s-10.745-24-24-24s-24,10.745-24,24
		S434.873,424.073,448.128,424.073z"/>
	<path style="fill:#FFDA44;" d="M32.128,376.073c-13.255,0-24,10.745-24,24s10.745,24,24,24s24-10.745,24-24
		S45.382,376.073,32.128,376.073z"/>
</g>
<g>
	<path style="fill:#231F20;" d="M232.128,216.072h16v16h-16V216.072z"/>
	<path style="fill:#231F20;" d="M264.128,216.072h16v16h-16V216.072z"/>
	<path style="fill:#231F20;" d="M296.128,216.072h16v16h-16V216.072z"/>
	<path style="fill:#231F20;" d="M328.128,216.072h16v16h-16V216.072z"/>
	<path style="fill:#231F20;" d="M360.128,216.072h16v16h-16V216.072z"/>
	<path style="fill:#231F20;" d="M392.128,216.072h16v16h-16V216.072z"/>
	<path style="fill:#231F20;" d="M200.128,216.072h16v16h-16V216.072z"/>
	<path style="fill:#231F20;" d="M168.128,216.072h16v16h-16V216.072z"/>
	<path style="fill:#231F20;" d="M136.128,216.072h16v16h-16V216.072z"/>
	<path style="fill:#231F20;" d="M104.128,216.072h16v16h-16V216.072z"/>
	<path style="fill:#231F20;" d="M72.128,216.072h16v16h-16V216.072z"/>
	<path style="fill:#231F20;" d="M232.128,440.073h16v16h-16V440.073z"/>
	<path style="fill:#231F20;" d="M448.128,368.073c-14.547,0.055-27.227,9.915-30.864,24h-49.136c-13.255,0-24-10.745-24-24v-112h64
		c39.764,0.047,72.038-32.151,72.084-71.916c0.036-30.993-19.765-58.531-49.156-68.364c-6.747-39.152-43.956-65.422-83.108-58.674
		c-6.152,1.06-12.14,2.917-17.812,5.522c-18.45-49.706-73.701-75.043-123.407-56.593c-26.204,9.726-46.867,30.39-56.593,56.593
		c-36.098-16.593-78.813-0.78-95.406,35.318c-2.61,5.679-4.47,11.674-5.53,17.834c-37.71,12.616-58.053,53.414-45.436,91.124
		c9.833,29.392,37.372,49.193,68.364,49.156h64v112c0,13.255-10.745,24-24,24H62.992c-4.418-17.112-21.872-27.402-38.984-22.984
		s-27.402,21.872-22.984,38.984s21.872,27.402,38.984,22.984c11.272-2.91,20.074-11.712,22.984-22.984h49.136
		c22.08-0.026,39.974-17.92,40-40v-112h80v160c0.048,0.362,0.12,0.72,0.216,1.072c-17.142,4.299-27.554,21.681-23.255,38.823
		c4.299,17.142,21.681,27.554,38.823,23.255s27.554-21.681,23.255-38.823c-2.871-11.447-11.808-20.384-23.255-23.255
		c0.096-0.352,0.168-0.71,0.216-1.072v-160h80v112c0.026,22.08,17.92,39.974,40,40h49.136c4.449,17.072,21.896,27.305,38.967,22.855
		c17.072-4.449,27.305-21.896,22.855-38.967C475.415,377.874,462.685,368.051,448.128,368.073z M32.128,416.073
		c-8.837,0-16-7.163-16-16s7.163-16,16-16s16,7.163,16,16S40.964,416.073,32.128,416.073z M256.128,448.073c0,8.837-7.163,16-16,16
		c-8.837,0-16-7.163-16-16s7.163-16,16-16C248.964,432.073,256.128,439.236,256.128,448.073z M16.128,184.072
		c-0.015-25.659,17.41-48.045,42.288-54.328c3.281-0.831,5.684-3.638,6-7.008c2.604-28.789,26.805-50.798,55.712-50.664
		c10.773-0.026,21.317,3.105,30.328,9.008c3.692,2.426,8.653,1.4,11.079-2.293c0.492-0.749,0.855-1.575,1.073-2.443
		c10.916-42.813,54.472-68.671,97.285-57.755c28.37,7.233,50.522,29.386,57.755,57.755c1.077,4.285,5.423,6.886,9.709,5.809
		c0.869-0.218,1.695-0.581,2.443-1.073c9.012-5.903,19.555-9.034,30.328-9.008c28.907-0.134,53.108,21.875,55.712,50.664
		c0.316,3.37,2.719,6.177,6,7.008c30.005,7.501,48.248,37.905,40.747,67.909c-6.244,24.977-28.713,42.479-54.459,42.419h-336
		C41.214,240.037,16.163,214.986,16.128,184.072L16.128,184.072z M448.128,416.073c-8.837,0-16-7.163-16-16s7.163-16,16-16
		s16,7.163,16,16S456.964,416.073,448.128,416.073z"/>
	<path style="fill:#231F20;" d="M440.128,392.073h16v16h-16V392.073z"/>
	<path style="fill:#231F20;" d="M256.128,264.073h16v16h-16V264.073z"/>
	<path style="fill:#231F20;" d="M256.128,296.073h16v16h-16V296.073z"/>
	<path style="fill:#231F20;" d="M256.128,328.073h16v16h-16V328.073z"/>
	<path style="fill:#231F20;" d="M256.128,360.073h16v16h-16V360.073z"/>
	<path style="fill:#231F20;" d="M352.128,264.073h16v16h-16V264.073z"/>
	<path style="fill:#231F20;" d="M352.128,296.073h16v16h-16V296.073z"/>
	<path style="fill:#231F20;" d="M352.128,328.073h16v16h-16V328.073z"/>
	<path style="fill:#231F20;" d="M352.128,360.073h16v16h-16V360.073z"/>
	<path style="fill:#231F20;" d="M24.128,392.073h16v16h-16V392.073z"/>
	<path style="fill:#231F20;" d="M112.128,264.073h16v16h-16V264.073z"/>
	<path style="fill:#231F20;" d="M112.128,296.073h16v16h-16V296.073z"/>
	<path style="fill:#231F20;" d="M112.128,328.073h16v16h-16V328.073z"/>
	<path style="fill:#231F20;" d="M112.128,360.073h16v16h-16V360.073z"/>
	<path style="fill:#231F20;" d="M256.128,392.073h16v16h-16V392.073z"/>
</g>
<g>
</g>
<g>
</g>
<g>
</g>
<g>
</g>
<g>
</g>
<g>
</g>
<g>
</g>
<g>
</g>
<g>
</g>
<g>
</g>
<g>
</g>
<g>
</g>
<g>
</g>
<g>
</g>
<g>
</g>
</svg>
