<?xml version="1.0" encoding="iso-8859-1"?>
<!-- Generator: Adobe Illustrator 19.0.0, SVG Export Plug-In . SVG Version: 6.00 Build 0)  -->
<svg version="1.1" id="Capa_1" xmlns="http://www.w3.org/2000/svg" xmlns:xlink="http://www.w3.org/1999/xlink" x="0px" y="0px"
	 viewBox="0 0 480 480" style="enable-background:new 0 0 480 480;" xml:space="preserve">
<path style="fill:#FFDA44;" d="M304,424l-16,16h-96l-16-16H8v16c0,17.673,14.327,32,32,32h400c17.673,0,32-14.327,32-32v-16H304z"/>
<path style="fill:#EBE5DD;" d="M192,440h96l16-16h152V168H24v256h152L192,440z M48,192h384H48z M400,336v32H80v-32H400z M48,320v80
	h384H48V320z"/>
<path style="fill:#FF7956;" d="M80,336h320v32H80V336z"/>
<g>
	<path style="fill:#231F20;" d="M56,272H40v-88h400v87.528h-16V200H56V272z"/>
	<path style="fill:#231F20;" d="M424,288h16v16h-16V288z"/>
	<path style="fill:#231F20;" d="M40,288h16v16H40V288z"/>
	<path style="fill:#231F20;" d="M368,152c-4.418,0-8-3.582-8-8v-17.224l-27.8-4.648c-3.197-0.534-5.756-2.944-6.48-6.104
		c-2.144-9.411-5.854-18.395-10.976-26.576c-1.725-2.747-1.621-6.264,0.264-8.904l16.376-22.88l-13.048-13.048l-22.88,16.376
		c-2.64,1.885-6.157,1.989-8.904,0.264c-8.174-5.119-17.149-8.83-26.552-10.976c-3.163-0.721-5.577-3.281-6.112-6.48L249.224,16
		h-18.448l-4.64,27.8c-0.535,3.199-2.949,5.759-6.112,6.48c-9.411,2.144-18.395,5.854-26.576,10.976
		c-2.747,1.725-6.264,1.621-8.904-0.264l-22.88-16.376l-13.048,13.048l16.376,22.88c1.885,2.64,1.989,6.157,0.264,8.904
		c-5.119,8.174-8.83,17.149-10.976,26.552c-0.724,3.16-3.283,5.57-6.48,6.104l-27.8,4.672V144c0,4.418-3.582,8-8,8
		c-4.418,0-8-3.582-8-8v-24c0.001-3.908,2.826-7.243,6.68-7.888L140,107.2c2.133-7.519,5.127-14.767,8.92-21.6l-17.264-24.144
		c-2.277-3.182-1.919-7.545,0.848-10.312l22.64-22.64c2.767-2.767,7.13-3.125,10.312-0.848L189.6,44.944
		c6.832-3.802,14.08-6.803,21.6-8.944l4.904-29.344C216.76,2.808,220.097-0.005,224,0h32c3.908,0.001,7.243,2.826,7.888,6.68
		L268.8,36c7.519,2.133,14.767,5.127,21.6,8.92l24.168-17.288c3.182-2.277,7.545-1.919,10.312,0.848l22.64,22.64
		c2.767,2.767,3.125,7.13,0.848,10.312L331.056,85.6c3.802,6.832,6.803,14.08,8.944,21.6l29.344,4.904
		c3.848,0.656,6.661,3.993,6.656,7.896v24C376,148.418,372.418,152,368,152L368,152z"/>
	<path style="fill:#231F20;" d="M296,144c-4.418,0-8-3.582-8-8c0-26.51-21.49-48-48-48s-48,21.49-48,48c0,4.418-3.582,8-8,8
		s-8-3.582-8-8c0-35.346,28.654-64,64-64s64,28.654,64,64C304,140.418,300.418,144,296,144z"/>
	<path style="fill:#231F20;" d="M264,144c-4.418,0-8-3.582-8-8c0-8.837-7.163-16-16-16c-8.837,0-16,7.163-16,16c0,4.418-3.582,8-8,8
		s-8-3.582-8-8c0-17.673,14.327-32,32-32s32,14.327,32,32C272,140.418,268.418,144,264,144z"/>
	<path style="fill:#231F20;" d="M472,416h-8V168c0-4.418-3.582-8-8-8H24c-4.418,0-8,3.582-8,8v248H8c-4.418,0-8,3.582-8,8v16
		c0.026,22.08,17.92,39.974,40,40h400c22.08-0.026,39.974-17.92,40-40v-16C480,419.582,476.418,416,472,416z M32,176h416v240H304
		c-1.049,0.005-2.087,0.214-3.056,0.616c-0.972,0.4-1.855,0.987-2.6,1.728L284.688,432h-89.376l-13.656-13.656
		c-0.745-0.741-1.628-1.328-2.6-1.728c-0.969-0.402-2.007-0.611-3.056-0.616H32L32,176z M464,440c0,13.255-10.745,24-24,24H40
		c-13.255,0-24-10.745-24-24v-8h156.688l13.656,13.656c1.5,1.5,3.534,2.344,5.656,2.344h96c2.122,0,4.156-0.844,5.656-2.344
		L307.312,432H464V440z"/>
	<path style="fill:#231F20;" d="M440,320h-16v72H56v-72H40v88h400V320z"/>
	<path style="fill:#231F20;" d="M408,328H72v48h336V328z M392,360H88v-16h304V360z"/>
	<path style="fill:#231F20;" d="M72,288h16v32H72V288z"/>
	<path style="fill:#231F20;" d="M104,272h16v48h-16V272z"/>
	<path style="fill:#231F20;" d="M136,256h16v64h-16V256z"/>
	<path style="fill:#231F20;" d="M168,288h16v32h-16V288z"/>
	<path style="fill:#231F20;" d="M200,256h16v64h-16V256z"/>
	<path style="fill:#231F20;" d="M392,224h16v96h-16V224z"/>
	<path style="fill:#231F20;" d="M360,240h16v80h-16V240z"/>
	<path style="fill:#231F20;" d="M328,272h16v48h-16V272z"/>
	<path style="fill:#231F20;" d="M296,256h16v64h-16V256z"/>
	<path style="fill:#231F20;" d="M264,240h16v80h-16V240z"/>
	<path style="fill:#231F20;" d="M232,272h16v48h-16V272z"/>
</g>
<g>
</g>
<g>
</g>
<g>
</g>
<g>
</g>
<g>
</g>
<g>
</g>
<g>
</g>
<g>
</g>
<g>
</g>
<g>
</g>
<g>
</g>
<g>
</g>
<g>
</g>
<g>
</g>
<g>
</g>
</svg>
