<?xml version="1.0" encoding="iso-8859-1"?>
<!-- Generator: Adobe Illustrator 19.0.0, SVG Export Plug-In . SVG Version: 6.00 Build 0)  -->
<svg version="1.1" id="Capa_1" xmlns="http://www.w3.org/2000/svg" xmlns:xlink="http://www.w3.org/1999/xlink" x="0px" y="0px"
	 viewBox="0 0 480 480" style="enable-background:new 0 0 480 480;" xml:space="preserve">
<path style="fill:#FFDA44;" d="M8,184c0,17.673,14.327,32,32,32h208c17.673,0,32-14.327,32-32H8z"/>
<path style="fill:#EBE5DD;" d="M24,8v176h240V8H24z M240,160V32H48v128V32h192V160z"/>
<path style="fill:#FFDA44;" d="M216,440h-16c0,17.673,14.327,32,32,32h208c17.673,0,32-14.327,32-32H216z"/>
<path style="fill:#EBE5DD;" d="M456,264H216v176h240V264z M432,416V288H240v128V288h192V416z"/>
<g>
	<path style="fill:#231F20;" d="M280,176h-8V8c0-4.418-3.582-8-8-8H24c-4.418,0-8,3.582-8,8v168H8c-4.418,0-8,3.582-8,8
		c0.026,22.08,17.92,39.974,40,40h208c22.08-0.026,39.974-17.92,40-40C288,179.582,284.418,176,280,176z M32,16h224v160H32V16z
		 M248,208H40c-10.168-0.012-19.229-6.418-22.632-16h253.264C267.229,201.582,258.168,207.988,248,208L248,208z"/>
	<path style="fill:#231F20;" d="M40,168h56v-16H56V40h176v112h-40v16h56V24H40V168z"/>
	<path style="fill:#231F20;" d="M112,152h16v16h-16V152z"/>
	<path style="fill:#231F20;" d="M136,152h16v16h-16V152z"/>
	<path style="fill:#231F20;" d="M160,152h16v16h-16V152z"/>
	<path style="fill:#231F20;" d="M472,432h-8V264c0-4.418-3.582-8-8-8H216c-4.418,0-8,3.582-8,8v168h-8c-4.418,0-8,3.582-8,8
		c0.026,22.08,17.92,39.974,40,40h208c22.08-0.026,39.974-17.92,40-40C480,435.582,476.418,432,472,432z M224,272h224v160H224V272z
		 M440,464H232c-10.168-0.012-19.229-6.418-22.632-16h253.264C459.229,457.582,450.168,463.988,440,464L440,464z"/>
	<path style="fill:#231F20;" d="M232,424h56v-16h-40V296h176v112h-40v16h56V280H232V424z"/>
	<path style="fill:#231F20;" d="M304,408h16v16h-16V408z"/>
	<path style="fill:#231F20;" d="M328,408h16v16h-16V408z"/>
	<path style="fill:#231F20;" d="M352,408h16v16h-16V408z"/>
	<path style="fill:#231F20;" d="M366.728,217.68c-4.418,0.007-8.005-3.57-8.012-7.988c-0.004-2.897,1.558-5.57,4.084-6.988
		c50.094-28.01,67.997-91.326,39.988-141.42c-9.376-16.769-23.218-30.611-39.988-39.988c-3.853-2.165-5.221-7.043-3.056-10.896
		s7.043-5.221,10.896-3.056l0,0c57.8,32.345,78.436,105.421,46.091,163.221c-10.814,19.324-26.767,35.277-46.091,46.091
		C369.445,217.327,368.098,217.679,366.728,217.68z"/>
	<path style="fill:#231F20;" d="M350.728,190c-4.418,0.005-8.004-3.573-8.009-7.991c-0.003-2.907,1.571-5.588,4.113-7.001
		c34.798-19.243,47.409-63.052,28.166-97.85c-6.553-11.85-16.315-21.613-28.166-28.166c-3.862-2.147-5.251-7.018-3.104-10.88
		s7.018-5.251,10.88-3.104l0,0c42.522,23.537,57.912,77.088,34.375,119.609c-8.003,14.459-19.916,26.371-34.375,34.375
		C353.421,189.652,352.086,189.999,350.728,190L350.728,190z"/>
	<path style="fill:#231F20;" d="M334.728,162.32c-4.418,0.005-8.004-3.572-8.009-7.991c-0.003-2.938,1.603-5.641,4.185-7.041
		c19.489-10.477,26.795-34.77,16.317-54.259c-3.721-6.922-9.396-12.596-16.317-16.317c-3.884-2.108-5.324-6.964-3.216-10.848
		c2.108-3.884,6.964-5.324,10.848-3.216c27.256,14.691,37.443,48.695,22.752,75.952c-5.198,9.644-13.108,17.554-22.752,22.752
		C337.367,161.986,336.058,162.319,334.728,162.32L334.728,162.32z"/>
	<path style="fill:#231F20;" d="M312,136c-13.255,0-24-10.745-24-24s10.745-24,24-24s24,10.745,24,24S325.255,136,312,136z M312,104
		c-4.418,0-8,3.582-8,8c0,4.418,3.582,8,8,8s8-3.582,8-8C320,107.582,316.418,104,312,104z"/>
	<path style="fill:#231F20;" d="M113.272,473.68c-1.37-0.001-2.717-0.353-3.912-1.024c-57.8-32.344-78.436-105.421-46.091-163.221
		c10.814-19.324,26.767-35.277,46.091-46.091c3.853-2.165,8.731-0.797,10.896,3.056c2.165,3.853,0.797,8.731-3.056,10.896
		c-50.094,28.01-67.997,91.326-39.988,141.42c9.376,16.769,23.218,30.611,39.988,39.988c3.853,2.163,5.223,7.039,3.06,10.892
		C118.842,472.122,116.169,473.684,113.272,473.68z"/>
	<path style="fill:#231F20;" d="M129.272,446c-1.358-0.001-2.693-0.348-3.88-1.008C82.87,421.455,67.48,367.904,91.017,325.383
		c8.003-14.459,19.916-26.371,34.375-34.375c3.862-2.147,8.733-0.758,10.88,3.104s0.758,8.733-3.104,10.88l0,0
		c-34.798,19.243-47.409,63.052-28.166,97.85c6.553,11.85,16.315,21.613,28.166,28.166c3.862,2.147,5.252,7.018,3.105,10.879
		C134.86,444.429,132.18,446.003,129.272,446z"/>
	<path style="fill:#231F20;" d="M145.272,418.32c-1.33-0.001-2.639-0.334-3.808-0.968c-27.256-14.691-37.443-48.695-22.752-75.952
		c5.198-9.644,13.108-17.554,22.752-22.752c3.884-2.108,8.74-0.668,10.848,3.216c2.108,3.884,0.668,8.74-3.216,10.848l0,0
		c-19.489,10.477-26.795,34.77-16.317,54.259c3.721,6.922,9.396,12.596,16.317,16.317c3.884,2.107,5.324,6.963,3.217,10.847
		C150.913,416.717,148.21,418.323,145.272,418.32z"/>
	<path style="fill:#231F20;" d="M168,392c-13.255,0-24-10.745-24-24s10.745-24,24-24s24,10.745,24,24S181.255,392,168,392z M168,360
		c-4.418,0-8,3.582-8,8s3.582,8,8,8s8-3.582,8-8S172.418,360,168,360z"/>
</g>
<g>
</g>
<g>
</g>
<g>
</g>
<g>
</g>
<g>
</g>
<g>
</g>
<g>
</g>
<g>
</g>
<g>
</g>
<g>
</g>
<g>
</g>
<g>
</g>
<g>
</g>
<g>
</g>
<g>
</g>
</svg>
