<?xml version="1.0" encoding="iso-8859-1"?>
<!-- Generator: Adobe Illustrator 19.0.0, SVG Export Plug-In . SVG Version: 6.00 Build 0)  -->
<svg version="1.1" id="Capa_1" xmlns="http://www.w3.org/2000/svg" xmlns:xlink="http://www.w3.org/1999/xlink" x="0px" y="0px"
	 viewBox="0 0 480 480" style="enable-background:new 0 0 480 480;" xml:space="preserve">
<path style="fill:#FFDA44;" d="M8,392h464V88H8V392z M152,224h26c1.492-5.795,3.809-11.345,6.88-16.48l-18.4-18.4l22.64-22.64
	l18.4,18.4c5.135-3.071,10.685-5.388,16.48-6.88v-26h32v26c5.795,1.492,11.345,3.809,16.48,6.88l18.4-18.4l22.64,22.64l-18.4,18.4
	c3.071,5.135,5.388,10.685,6.88,16.48h26v32h-26c-1.492,5.795-3.809,11.345-6.88,16.48l18.4,18.4l-22.64,22.64l-18.4-18.4
	c-5.135,3.071-10.685,5.388-16.48,6.88v26h-32v-26c-5.795-1.492-11.345-3.809-16.48-6.88l-18.4,18.4l-22.64-22.64l18.4-18.4
	c-3.071-5.135-5.388-10.685-6.88-16.48h-26V224z"/>
<path style="fill:#FFF200;" d="M8,8v48h184h8L136,8H8z"/>
<g>
	<path style="fill:#5EAC24;" d="M456,424H280v48h176c8.837,0,16-7.163,16-16v-16C472,431.163,464.837,424,456,424z"/>
	<path style="fill:#5EAC24;" d="M248,432v16v16h32v-32H248z"/>
</g>
<path style="fill:#E0E0E2;" d="M8,440v16l48,8v-16v-16L8,440z"/>
<path style="fill:#FFF200;" d="M184.88,272.48l-18.4,18.4l22.64,22.64l18.4-18.4c5.135,3.071,10.685,5.388,16.48,6.88v26h32v-26
	c5.795-1.492,11.345-3.809,16.48-6.88l18.4,18.4l22.64-22.64l-18.4-18.4c3.071-5.135,5.388-10.685,6.88-16.48h26v-32h-26
	c-1.492-5.795-3.809-11.345-6.88-16.48l18.4-18.4l-22.64-22.64l-18.4,18.4c-5.135-3.071-10.685-5.388-16.48-6.88v-26h-32v26
	c-5.795,1.492-11.345,3.809-16.48,6.88l-18.4-18.4l-22.64,22.64l18.4,18.4c-3.071,5.135-5.388,10.685-6.88,16.48h-26v32h26
	C179.492,261.795,181.809,267.345,184.88,272.48z M240,208c17.673,0,32,14.327,32,32s-14.327,32-32,32s-32-14.327-32-32
	S222.327,208,240,208z"/>
<circle style="fill:#FFDA44;" cx="240" cy="240" r="32"/>
<g>
	<path style="fill:#231F20;" d="M0,400h480V80H0V400z M16,96h448v288H16V96z"/>
	<path style="fill:#231F20;" d="M216,352h16v16h-16V352z"/>
	<path style="fill:#231F20;" d="M248,352h16v16h-16V352z"/>
	<path style="fill:#231F20;" d="M280,352h16v16h-16V352z"/>
	<path style="fill:#231F20;" d="M312,352h16v16h-16V352z"/>
	<path style="fill:#231F20;" d="M344,352h16v16h-16V352z"/>
	<path style="fill:#231F20;" d="M376,352h16v16h-16V352z"/>
	<path style="fill:#231F20;" d="M408,352h16v16h-16V352z"/>
	<path style="fill:#231F20;" d="M440,352h16v16h-16V352z"/>
	<path style="fill:#231F20;" d="M184,352h16v16h-16V352z"/>
	<path style="fill:#231F20;" d="M152,352h16v16h-16V352z"/>
	<path style="fill:#231F20;" d="M120,352h16v16h-16V352z"/>
	<path style="fill:#231F20;" d="M88,352h16v16H88V352z"/>
	<path style="fill:#231F20;" d="M56,352h16v16H56V352z"/>
	<path style="fill:#231F20;" d="M24,352h16v16H24V352z"/>
	<path style="fill:#231F20;" d="M216,112h16v16h-16V112z"/>
	<path style="fill:#231F20;" d="M248,112h16v16h-16V112z"/>
	<path style="fill:#231F20;" d="M280,112h16v16h-16V112z"/>
	<path style="fill:#231F20;" d="M312,112h16v16h-16V112z"/>
	<path style="fill:#231F20;" d="M344,112h16v16h-16V112z"/>
	<path style="fill:#231F20;" d="M376,112h16v16h-16V112z"/>
	<path style="fill:#231F20;" d="M408,112h16v16h-16V112z"/>
	<path style="fill:#231F20;" d="M440,112h16v16h-16V112z"/>
	<path style="fill:#231F20;" d="M184,112h16v16h-16V112z"/>
	<path style="fill:#231F20;" d="M152,112h16v16h-16V112z"/>
	<path style="fill:#231F20;" d="M120,112h16v16h-16V112z"/>
	<path style="fill:#231F20;" d="M88,112h16v16H88V112z"/>
	<path style="fill:#231F20;" d="M56,112h16v16H56V112z"/>
	<path style="fill:#231F20;" d="M24,112h16v16H24V112z"/>
	<path style="fill:#231F20;" d="M202.664,48l-64-48H0v64h480V48H202.664z M16,48V16h117.336L176,48H16z"/>
	<path style="fill:#231F20;" d="M456,416H272v8h-32v16H64v-17.448L0,433.224v29.552l64,10.672V456h176v16h32v8h184
		c13.255,0,24-10.745,24-24v-16C480,426.745,469.255,416,456,416z M48,454.552l-32-5.328v-2.448l32-5.328V454.552z M256,456v-16h16
		v16H256z M464,456c0,4.418-3.582,8-8,8H288v-32h168c4.418,0,8,3.582,8,8V456z"/>
	<path style="fill:#231F20;" d="M400,440h16v16h-16V440z"/>
	<path style="fill:#231F20;" d="M432,440h16v16h-16V440z"/>
	<path style="fill:#231F20;" d="M368,440h16v16h-16V440z"/>
	<path style="fill:#231F20;" d="M336,440h16v16h-16V440z"/>
	<path style="fill:#231F20;" d="M304,440h16v16h-16V440z"/>
	<path style="fill:#231F20;" d="M304.984,208.968L324.8,189.12l-33.92-33.92l-19.848,19.848c-2.287-1.115-4.635-2.1-7.032-2.952V144
		h-48v28.096c-2.397,0.841-4.744,1.816-7.032,2.92L189.12,155.2l-33.92,33.92l19.848,19.848c-1.104,2.288-2.079,4.635-2.92,7.032
		H144v48h28.096c0.841,2.397,1.816,4.744,2.92,7.032L155.2,290.88l33.92,33.92l19.848-19.848c2.288,1.104,4.635,2.079,7.032,2.92
		V336h48v-28.096c2.397-0.841,4.744-1.816,7.032-2.92L290.88,324.8l33.92-33.92l-19.848-19.848c1.115-2.287,2.1-4.635,2.952-7.032
		H336v-48h-28.096C307.063,213.603,306.088,211.256,304.984,208.968L304.984,208.968z M320,248h-24.176l-1.6,5.984
		c-1.295,5.063-3.313,9.913-5.992,14.4l-3.2,5.36l17.176,17.176l-11.328,11.288l-17.176-17.176l-5.36,3.2
		c-4.487,2.679-9.337,4.697-14.4,5.992l-5.984,1.6V320H232v-24.176l-5.984-1.6c-5.049-1.299-9.885-3.317-14.36-5.992l-5.36-3.2
		l-17.176,17.176l-11.328-11.328l17.176-17.176l-3.2-5.36c-2.679-4.487-4.697-9.337-5.992-14.4l-1.6-5.984H160V232h24.176l1.6-5.984
		c1.299-5.049,3.317-9.885,5.992-14.36l3.2-5.36l-17.176-17.176l11.328-11.328l17.176,17.176l5.36-3.2
		c4.475-2.675,9.311-4.693,14.36-5.992l5.984-1.6V160h16v24.176l5.984,1.6c5.063,1.295,9.913,3.313,14.4,5.992l5.36,3.2
		l17.176-17.176l11.328,11.328l-17.176,17.176l3.2,5.36c2.675,4.475,4.693,9.311,5.992,14.36l1.6,5.984H320V248z"/>
	<path style="fill:#231F20;" d="M240,200c-22.091,0-40,17.909-40,40s17.909,40,40,40s40-17.909,40-40
		C279.974,217.92,262.08,200.026,240,200z M240,264c-13.255,0-24-10.745-24-24c0-13.255,10.745-24,24-24c13.255,0,24,10.745,24,24
		C264,253.255,253.255,264,240,264z"/>
</g>
<g>
</g>
<g>
</g>
<g>
</g>
<g>
</g>
<g>
</g>
<g>
</g>
<g>
</g>
<g>
</g>
<g>
</g>
<g>
</g>
<g>
</g>
<g>
</g>
<g>
</g>
<g>
</g>
<g>
</g>
</svg>
