<?xml version="1.0" encoding="iso-8859-1"?>
<!-- Generator: Adobe Illustrator 19.0.0, SVG Export Plug-In . SVG Version: 6.00 Build 0)  -->
<svg version="1.1" id="Capa_1" xmlns="http://www.w3.org/2000/svg" xmlns:xlink="http://www.w3.org/1999/xlink" x="0px" y="0px"
	 viewBox="0 0 480 480" style="enable-background:new 0 0 480 480;" xml:space="preserve">
<g>
	<path style="fill:#FFDA44;" d="M384.184,24H344v96h128V40h-64L384.184,24z"/>
	<path style="fill:#FFDA44;" d="M384.184,192H344v96h128v-80h-64L384.184,192z"/>
	<path style="fill:#FFDA44;" d="M384.184,360H344v96h128v-80h-64L384.184,360z"/>
	<circle style="fill:#FFDA44;" cx="272" cy="240" r="16"/>
</g>
<ellipse style="fill:#BDDBFF;" cx="104" cy="144" rx="96" ry="32"/>
<path style="fill:#9BC9FF;" d="M104,240c53.04,0,96-14.32,96-32v-64c0,17.68-42.96,32-96,32S8,161.68,8,144v64
	C8,225.68,50.96,240,104,240z"/>
<path style="fill:#57A4FF;" d="M104,304c53.04,0,96-14.32,96-32v-64c0,17.68-42.96,32-96,32S8,225.68,8,208v64
	C8,289.68,50.96,304,104,304z"/>
<path style="fill:#2488FF;" d="M104,368c53.04,0,96-14.32,96-32v-64c0,17.68-42.96,32-96,32S8,289.68,8,272v64
	C8,353.68,50.96,368,104,368z"/>
<g>
	<path style="fill:#231F20;" d="M480,128H336V16h50.616l23.824,16H480V128z M352,112h112V48h-58.4l-23.856-16H352L352,112z"/>
	<path style="fill:#231F20;" d="M480,296H336V184h50.616l23.824,16H480V296z M352,280h112v-64h-58.4l-23.816-16H352V280z"/>
	<path style="fill:#231F20;" d="M480,464H336V352h50.616l23.824,16H480V464z M352,448h112v-64h-58.4l-23.816-16H352V448z"/>
	<path style="fill:#231F20;" d="M320,80V64h-56v153.472c-6.775,2.42-12.108,7.753-14.528,14.528H224v16h25.472
		c2.42,6.775,7.753,12.108,14.528,14.528V416h56v-16h-40V262.528c6.775-2.42,12.108-7.753,14.528-14.528H320v-16h-25.472
		c-2.42-6.775-7.753-12.108-14.528-14.528V80H320z M272,248c-4.418,0-8-3.582-8-8s3.582-8,8-8s8,3.582,8,8S276.418,248,272,248z"/>
	<path style="fill:#231F20;" d="M104,104C52.32,104,0,117.744,0,144v192c0,26.256,52.32,40,104,40s104-13.744,104-40V144
		C208,117.744,155.68,104,104,104z M192,336c0,8.152-31.064,24-88,24s-88-15.848-88-24v-41.6c0.4,0.24,0.896,0.432,1.304,0.672
		c1.688,0.96,3.472,1.872,5.36,2.752c0.656,0.312,1.28,0.632,1.968,0.928c6.029,2.57,12.251,4.661,18.608,6.256l0.24,0.064
		c19.815,4.769,40.14,7.096,60.52,6.928c20.382,0.155,40.706-2.185,60.52-6.968l0.24-0.064c6.357-1.595,12.579-3.686,18.608-6.256
		c0.688-0.296,1.312-0.616,1.968-0.928c1.888-0.88,3.672-1.792,5.36-2.752c0.408-0.24,0.904-0.432,1.304-0.672L192,336z M104,296
		c-56.936,0-88-15.848-88-24v-41.6c0.4,0.24,0.896,0.432,1.304,0.672c1.688,0.96,3.472,1.872,5.36,2.752
		c0.656,0.312,1.28,0.632,1.968,0.928c6.029,2.57,12.251,4.661,18.608,6.256l0.24,0.064c19.815,4.769,40.14,7.096,60.52,6.928
		c20.382,0.155,40.706-2.185,60.52-6.968l0.24-0.064c6.357-1.595,12.579-3.686,18.608-6.256c0.688-0.296,1.312-0.616,1.968-0.928
		c1.888-0.88,3.672-1.792,5.36-2.752c0.408-0.24,0.904-0.432,1.304-0.672V272C192,280.152,160.936,296,104,296L104,296z M104,232
		c-56.936,0-88-15.848-88-24v-41.6c0.4,0.24,0.896,0.432,1.304,0.672c1.688,0.96,3.472,1.872,5.36,2.752
		c0.656,0.312,1.28,0.632,1.968,0.928c6.029,2.57,12.251,4.661,18.608,6.256l0.24,0.064c19.815,4.769,40.14,7.096,60.52,6.928
		c20.382,0.155,40.706-2.185,60.52-6.968l0.24-0.064c6.357-1.595,12.579-3.686,18.608-6.256c0.688-0.296,1.312-0.616,1.968-0.928
		c1.888-0.88,3.672-1.792,5.36-2.752c0.408-0.24,0.904-0.432,1.304-0.672V208C192,216.152,160.936,232,104,232L104,232z M104,168
		c-56.936,0-88-15.848-88-24s31.064-24,88-24s88,15.848,88,24S160.936,168,104,168z"/>
	<path style="fill:#231F20;" d="M368,72h16v16h-16V72z"/>
	<path style="fill:#231F20;" d="M400,72h16v16h-16V72z"/>
	<path style="fill:#231F20;" d="M432,72h16v16h-16V72z"/>
	<path style="fill:#231F20;" d="M368,240h16v16h-16V240z"/>
	<path style="fill:#231F20;" d="M400,240h16v16h-16V240z"/>
	<path style="fill:#231F20;" d="M432,240h16v16h-16V240z"/>
	<path style="fill:#231F20;" d="M368,408h16v16h-16V408z"/>
	<path style="fill:#231F20;" d="M400,408h16v16h-16V408z"/>
	<path style="fill:#231F20;" d="M432,408h16v16h-16V408z"/>
</g>
<g>
</g>
<g>
</g>
<g>
</g>
<g>
</g>
<g>
</g>
<g>
</g>
<g>
</g>
<g>
</g>
<g>
</g>
<g>
</g>
<g>
</g>
<g>
</g>
<g>
</g>
<g>
</g>
<g>
</g>
</svg>
