<?xml version="1.0" encoding="iso-8859-1"?>
<!-- Generator: Adobe Illustrator 19.0.0, SVG Export Plug-In . SVG Version: 6.00 Build 0)  -->
<svg version="1.1" id="Capa_1" xmlns="http://www.w3.org/2000/svg" xmlns:xlink="http://www.w3.org/1999/xlink" x="0px" y="0px"
	 viewBox="0 0 480 480" style="enable-background:new 0 0 480 480;" xml:space="preserve">
<g>
	<circle style="fill:#FFDA44;" cx="144" cy="32" r="16"/>
	<circle style="fill:#FFDA44;" cx="40" cy="144" r="16"/>
	<circle style="fill:#FFDA44;" cx="336" cy="32" r="16"/>
	<circle style="fill:#FFDA44;" cx="440" cy="144" r="16"/>
	<circle style="fill:#FFDA44;" cx="144" cy="448" r="16"/>
	<circle style="fill:#FFDA44;" cx="40" cy="336" r="16"/>
	<circle style="fill:#FFDA44;" cx="336" cy="448" r="16"/>
	<circle style="fill:#FFDA44;" cx="440" cy="336" r="16"/>
	<path style="fill:#FFDA44;" d="M8,192h184V8h96v184h184v96H288v184h-96V288H8"/>
</g>
<g>
	<path style="fill:#231F20;" d="M200,0h-16v184H0v16h200V0z"/>
	<path style="fill:#231F20;" d="M40,168c10.134-0.042,19.15-6.445,22.528-16H152V54.528c12.497-4.418,19.046-18.131,14.627-30.627
		C162.209,11.404,148.497,4.855,136,9.273s-19.046,18.131-14.627,30.627c2.416,6.835,7.793,12.211,14.627,14.627V136H62.528
		c-4.44-12.465-18.145-18.971-30.611-14.531c-12.465,4.44-18.971,18.145-14.531,30.611C20.792,161.64,29.851,168.018,40,168z
		 M144,24c4.418,0,8,3.582,8,8s-3.582,8-8,8s-8-3.582-8-8S139.582,24,144,24z M40,136c4.418,0,8,3.582,8,8s-3.582,8-8,8
		s-8-3.582-8-8S35.582,136,40,136z"/>
	<path style="fill:#231F20;" d="M296,184V0h-16v200h200v-16H296z"/>
	<path style="fill:#231F20;" d="M328,54.528V152h89.472c4.418,12.497,18.131,19.046,30.627,14.627
		c12.497-4.418,19.046-18.131,14.627-30.627c-4.418-12.497-18.131-19.046-30.627-14.627c-6.835,2.416-12.211,7.793-14.627,14.627
		H344V54.528c12.497-4.418,19.046-18.131,14.627-30.627S340.497,4.855,328,9.273s-19.046,18.131-14.627,30.627
		C315.789,46.735,321.165,52.112,328,54.528z M440,136c4.418,0,8,3.582,8,8s-3.582,8-8,8s-8-3.582-8-8S435.582,136,440,136z M336,24
		c4.418,0,8,3.582,8,8s-3.582,8-8,8s-8-3.582-8-8S331.582,24,336,24z"/>
	<path style="fill:#231F20;" d="M152,425.472V328H62.528c-4.418-12.497-18.131-19.046-30.627-14.627S12.855,331.503,17.273,344
		s18.131,19.046,30.627,14.627c6.835-2.416,12.211-7.793,14.627-14.627H136v81.472c-12.497,4.418-19.046,18.131-14.627,30.627
		c4.418,12.497,18.131,19.046,30.627,14.627c12.497-4.418,19.046-18.131,14.627-30.627C164.211,433.265,158.835,427.888,152,425.472
		z M40,344c-4.418,0-8-3.582-8-8s3.582-8,8-8s8,3.582,8,8S44.418,344,40,344z M144,456c-4.418,0-8-3.582-8-8s3.582-8,8-8
		s8,3.582,8,8S148.418,456,144,456z"/>
	<path style="fill:#231F20;" d="M440,312c-10.134,0.042-19.15,6.445-22.528,16H328v97.472
		c-12.497,4.418-19.046,18.131-14.627,30.627c4.418,12.497,18.131,19.046,30.627,14.627c12.497-4.418,19.046-18.131,14.627-30.627
		c-2.416-6.835-7.793-12.211-14.627-14.627V344h73.472c4.44,12.465,18.145,18.971,30.611,14.531
		c12.465-4.44,18.971-18.145,14.531-30.611C459.208,318.36,450.149,311.982,440,312z M336,456c-4.418,0-8-3.582-8-8s3.582-8,8-8
		s8,3.582,8,8S340.418,456,336,456z M440,344c-4.418,0-8-3.582-8-8s3.582-8,8-8s8,3.582,8,8S444.418,344,440,344z"/>
	<path style="fill:#231F20;" d="M0,296h184v184h16V280H0V296z"/>
	<path style="fill:#231F20;" d="M280,480h16V296h184v-16H280V480z"/>
	<path style="fill:#231F20;" d="M232,232h16v16h-16V232z"/>
	<path style="fill:#231F20;" d="M232,72h16v16h-16V72z"/>
	<path style="fill:#231F20;" d="M232,136h16v16h-16V136z"/>
	<path style="fill:#231F20;" d="M232,104h16v16h-16V104z"/>
	<path style="fill:#231F20;" d="M232,168h16v48h-16V168z"/>
	<path style="fill:#231F20;" d="M232,0h16v56h-16V0z"/>
	<path style="fill:#231F20;" d="M72,232h16v16H72V232z"/>
	<path style="fill:#231F20;" d="M136,232h16v16h-16V232z"/>
	<path style="fill:#231F20;" d="M104,232h16v16h-16V232z"/>
	<path style="fill:#231F20;" d="M168,232h48v16h-48V232z"/>
	<path style="fill:#231F20;" d="M0,232h56v16H0V232z"/>
	<path style="fill:#231F20;" d="M232,392h16v16h-16V392z"/>
	<path style="fill:#231F20;" d="M232,328h16v16h-16V328z"/>
	<path style="fill:#231F20;" d="M232,360h16v16h-16V360z"/>
	<path style="fill:#231F20;" d="M232,264h16v48h-16V264z"/>
	<path style="fill:#231F20;" d="M232,464v16h16v-16v-40h-16V464z"/>
	<path style="fill:#231F20;" d="M392,232h16v16h-16V232z"/>
	<path style="fill:#231F20;" d="M328,232h16v16h-16V232z"/>
	<path style="fill:#231F20;" d="M360,232h16v16h-16V232z"/>
	<path style="fill:#231F20;" d="M264,232h48v16h-48V232z"/>
	<path style="fill:#231F20;" d="M424,232h56v16h-56V232z"/>
</g>
<g>
</g>
<g>
</g>
<g>
</g>
<g>
</g>
<g>
</g>
<g>
</g>
<g>
</g>
<g>
</g>
<g>
</g>
<g>
</g>
<g>
</g>
<g>
</g>
<g>
</g>
<g>
</g>
<g>
</g>
</svg>
