<?xml version="1.0" encoding="iso-8859-1"?>
<!-- Generator: Adobe Illustrator 19.0.0, SVG Export Plug-In . SVG Version: 6.00 Build 0)  -->
<svg version="1.1" id="Capa_1" xmlns="http://www.w3.org/2000/svg" xmlns:xlink="http://www.w3.org/1999/xlink" x="0px" y="0px"
	 viewBox="0 0 480 480" style="enable-background:new 0 0 480 480;" xml:space="preserve">
<g>
	<path style="fill:#FFDA44;" d="M8,120h464V8H8V120z M408,40c13.255,0,24,10.745,24,24s-10.745,24-24,24s-24-10.745-24-24
		S394.745,40,408,40z"/>
	<path style="fill:#FFDA44;" d="M88,160H8v112h464V160H88z M432,216c0,13.255-10.745,24-24,24s-24-10.745-24-24s10.745-24,24-24l0,0
		C421.255,192,432,202.745,432,216z"/>
</g>
<g>
	<path style="fill:#E0E0E2;" d="M48,120h40v40H48V120z"/>
	<path style="fill:#E0E0E2;" d="M48,272h40v40H48V272z"/>
	<path style="fill:#E0E0E2;" d="M392,272h40v40h-40V272z"/>
	<path style="fill:#E0E0E2;" d="M392,120h40v40h-40V120z"/>
	<circle style="fill:#E0E0E2;" cx="408" cy="64" r="24"/>
</g>
<path style="fill:#FFDA44;" d="M88,312H8v112h464V312H88z M432,368c0,13.255-10.745,24-24,24s-24-10.745-24-24s10.745-24,24-24
	S432,354.745,432,368z"/>
<g>
	<circle style="fill:#E0E0E2;" cx="408" cy="368" r="24"/>
	<circle style="fill:#E0E0E2;" cx="408" cy="216" r="24"/>
</g>
<g>
	<path style="fill:#231F20;" d="M480,128V0H0v128h40v24H0v128h40v24H0v128h40v48h16v-48h368v48h16v-48h40V304h-40v-24h40V152h-40
		v-24H480z M16,112V16h448v96H16z M384,128v24H96v-24H384z M56,128h24v24H56V128z M56,280h24v24H56V280z M96,280h288v24H96V280z
		 M464,320v96H16v-96H464z M424,304h-24v-24h24V304z M464,168v96H16v-96H464z M424,152h-24v-24h24V152z"/>
	<path style="fill:#231F20;" d="M40,40h16v48H40V40z"/>
	<path style="fill:#231F20;" d="M72,40h16v48H72V40z"/>
	<path style="fill:#231F20;" d="M104,40h16v48h-16V40z"/>
	<path style="fill:#231F20;" d="M408,96c17.673,0,32-14.327,32-32s-14.327-32-32-32s-32,14.327-32,32S390.327,96,408,96z M408,48
		c8.837,0,16,7.163,16,16s-7.163,16-16,16s-16-7.163-16-16S399.163,48,408,48z"/>
	<path style="fill:#231F20;" d="M184,40h16v16h-16V40z"/>
	<path style="fill:#231F20;" d="M216,40h16v16h-16V40z"/>
	<path style="fill:#231F20;" d="M248,40h16v16h-16V40z"/>
	<path style="fill:#231F20;" d="M280,40h16v16h-16V40z"/>
	<path style="fill:#231F20;" d="M184,72h16v16h-16V72z"/>
	<path style="fill:#231F20;" d="M216,72h16v16h-16V72z"/>
	<path style="fill:#231F20;" d="M248,72h16v16h-16V72z"/>
	<path style="fill:#231F20;" d="M280,72h16v16h-16V72z"/>
	<path style="fill:#231F20;" d="M312,40h16v16h-16V40z"/>
	<path style="fill:#231F20;" d="M312,72h16v16h-16V72z"/>
	<path style="fill:#231F20;" d="M344,40h16v16h-16V40z"/>
	<path style="fill:#231F20;" d="M344,72h16v16h-16V72z"/>
	<path style="fill:#231F20;" d="M40,344h16v48H40V344z"/>
	<path style="fill:#231F20;" d="M72,344h16v48H72V344z"/>
	<path style="fill:#231F20;" d="M104,344h16v48h-16V344z"/>
	<path style="fill:#231F20;" d="M408,400c17.673,0,32-14.327,32-32s-14.327-32-32-32s-32,14.327-32,32S390.327,400,408,400z
		 M408,352c8.837,0,16,7.163,16,16s-7.163,16-16,16s-16-7.163-16-16S399.163,352,408,352z"/>
	<path style="fill:#231F20;" d="M184,344h16v16h-16V344z"/>
	<path style="fill:#231F20;" d="M216,344h16v16h-16V344z"/>
	<path style="fill:#231F20;" d="M248,344h16v16h-16V344z"/>
	<path style="fill:#231F20;" d="M280,344h16v16h-16V344z"/>
	<path style="fill:#231F20;" d="M184,376h16v16h-16V376z"/>
	<path style="fill:#231F20;" d="M216,376h16v16h-16V376z"/>
	<path style="fill:#231F20;" d="M248,376h16v16h-16V376z"/>
	<path style="fill:#231F20;" d="M280,376h16v16h-16V376z"/>
	<path style="fill:#231F20;" d="M312,344h16v16h-16V344z"/>
	<path style="fill:#231F20;" d="M312,376h16v16h-16V376z"/>
	<path style="fill:#231F20;" d="M344,344h16v16h-16V344z"/>
	<path style="fill:#231F20;" d="M344,376h16v16h-16V376z"/>
	<path style="fill:#231F20;" d="M40,192h16v48H40V192z"/>
	<path style="fill:#231F20;" d="M72,192h16v48H72V192z"/>
	<path style="fill:#231F20;" d="M104,192h16v48h-16V192z"/>
	<path style="fill:#231F20;" d="M408,248c17.673,0,32-14.327,32-32s-14.327-32-32-32s-32,14.327-32,32S390.327,248,408,248z
		 M408,200c8.837,0,16,7.163,16,16s-7.163,16-16,16s-16-7.163-16-16S399.163,200,408,200z"/>
	<path style="fill:#231F20;" d="M184,192h16v16h-16V192z"/>
	<path style="fill:#231F20;" d="M216,192h16v16h-16V192z"/>
	<path style="fill:#231F20;" d="M248,192h16v16h-16V192z"/>
	<path style="fill:#231F20;" d="M280,192h16v16h-16V192z"/>
	<path style="fill:#231F20;" d="M184,224h16v16h-16V224z"/>
	<path style="fill:#231F20;" d="M216,224h16v16h-16V224z"/>
	<path style="fill:#231F20;" d="M248,224h16v16h-16V224z"/>
	<path style="fill:#231F20;" d="M280,224h16v16h-16V224z"/>
	<path style="fill:#231F20;" d="M312,192h16v16h-16V192z"/>
	<path style="fill:#231F20;" d="M312,224h16v16h-16V224z"/>
	<path style="fill:#231F20;" d="M344,192h16v16h-16V192z"/>
	<path style="fill:#231F20;" d="M344,224h16v16h-16V224z"/>
	<path style="fill:#231F20;" d="M264,448h16v16h-16V448z"/>
	<path style="fill:#231F20;" d="M296,448h16v16h-16V448z"/>
	<path style="fill:#231F20;" d="M328,448h16v16h-16V448z"/>
	<path style="fill:#231F20;" d="M360,448h16v16h-16V448z"/>
	<path style="fill:#231F20;" d="M392,448h16v16h-16V448z"/>
	<path style="fill:#231F20;" d="M232,448h16v16h-16V448z"/>
	<path style="fill:#231F20;" d="M200,448h16v16h-16V448z"/>
	<path style="fill:#231F20;" d="M168,448h16v16h-16V448z"/>
	<path style="fill:#231F20;" d="M136,448h16v16h-16V448z"/>
	<path style="fill:#231F20;" d="M104,448h16v16h-16V448z"/>
	<path style="fill:#231F20;" d="M72,448h16v16H72V448z"/>
</g>
<g>
</g>
<g>
</g>
<g>
</g>
<g>
</g>
<g>
</g>
<g>
</g>
<g>
</g>
<g>
</g>
<g>
</g>
<g>
</g>
<g>
</g>
<g>
</g>
<g>
</g>
<g>
</g>
<g>
</g>
</svg>
