<?xml version="1.0" encoding="iso-8859-1"?>
<!-- Generator: Adobe Illustrator 19.0.0, SVG Export Plug-In . SVG Version: 6.00 Build 0)  -->
<svg version="1.1" id="Capa_1" xmlns="http://www.w3.org/2000/svg" xmlns:xlink="http://www.w3.org/1999/xlink" x="0px" y="0px"
	 viewBox="0 0 488.106 488.106" style="enable-background:new 0 0 488.106 488.106;" xml:space="preserve">
<g>
	<path style="fill:#FFDA44;" d="M440,204.053c-22.091,0-40,17.909-40,40s17.909,40,40,40s40-17.909,40-40
		c0.053-22.038-17.769-39.947-39.808-40C440.128,204.053,440.064,204.053,440,204.053z M440,252.053c-4.418,0-8-3.582-8-8
		s3.582-8,8-8s8,3.582,8,8S444.418,252.053,440,252.053z"/>
	<path style="fill:#FFDA44;" d="M276.288,80.341c15.619-15.623,15.616-40.95-0.007-56.569c-15.623-15.619-40.95-15.616-56.569,0.007
		c-15.616,15.62-15.616,40.941,0,56.561c15.619,15.623,40.946,15.626,56.569,0.007C276.283,80.346,276.286,80.343,276.288,80.341z
		 M240,52.053c0-4.418,3.582-8,8-8s8,3.582,8,8s-3.582,8-8,8S240,56.471,240,52.053z"/>
	<path style="fill:#FFDA44;" d="M219.712,407.765c-15.619,15.623-15.616,40.95,0.007,56.569s40.95,15.616,56.569-0.007
		c15.616-15.62,15.616-40.941,0-56.561c-15.619-15.623-40.946-15.626-56.569-0.007C219.717,407.76,219.714,407.762,219.712,407.765
		L219.712,407.765z M256,436.053c0,4.418-3.582,8-8,8s-8-3.582-8-8s3.582-8,8-8S256,431.635,256,436.053z"/>
</g>
<path style="fill:#BDDBFF;" d="M8,244.053c0,75.111,60.889,136,136,136s136-60.889,136-136s-60.889-136-136-136S8,168.942,8,244.053
	z M72.12,321.589c40.638,40.553,106.434,40.553,147.072,0C178.554,362.142,112.758,362.142,72.12,321.589z M104,244.053
	c0-22.091,17.909-40,40-40s40,17.909,40,40s-17.909,40-40,40S104,266.144,104,244.053z M219.2,174.517
	c-40.638-40.553-106.434-40.553-147.072,0C112.766,133.964,178.562,133.964,219.2,174.517z"/>
<g>
	<path style="fill:#FFDA44;" d="M184,244.053c0-22.091-17.909-40-40-40s-40,17.909-40,40s17.909,40,40,40S184,266.144,184,244.053z
		 M136,244.053c0-4.418,3.582-8,8-8s8,3.582,8,8s-3.582,8-8,8S136,248.471,136,244.053z"/>
	<circle style="fill:#FFDA44;" cx="144" cy="244.053" r="8"/>
	<circle style="fill:#FFDA44;" cx="440" cy="244.053" r="8"/>
	<circle style="fill:#FFDA44;" cx="248" cy="52.053" r="8"/>
	<circle style="fill:#FFDA44;" cx="248" cy="436.053" r="8"/>
</g>
<g>
	<path style="fill:#231F20;" d="M248,452.053c-8.837,0-16-7.163-16-16s7.163-16,16-16c8.837,0,16,7.163,16,16
		S256.837,452.053,248,452.053z"/>
	<path style="fill:#231F20;" d="M440,196.053c-9.96,0-19.671,3.12-27.768,8.92L287.096,79.837
		c15.397-21.645,10.333-51.673-11.312-67.071c-21.645-15.397-51.673-10.333-67.071,11.312s-10.333,51.673,11.312,67.071
		c16.69,11.873,39.069,11.873,55.759,0L400.92,216.285c-11.894,16.602-11.894,38.934,0,55.536L275.784,396.957
		c-21.645-15.397-51.673-10.333-67.071,11.312s-10.333,51.673,11.312,67.071c21.645,15.397,51.673,10.333,67.071-11.312
		c11.873-16.69,11.873-39.069,0-55.759l125.136-125.136c21.583,15.392,51.558,10.373,66.95-11.21s10.373-51.558-11.21-66.95
		C459.809,199.151,450.027,196.032,440,196.053L440,196.053z M225.368,74.677c-12.494-12.499-12.49-32.761,0.009-45.255
		c12.499-12.494,32.761-12.49,45.255,0.009c12.491,12.496,12.491,32.75,0,45.246C257.961,86.756,238.039,86.756,225.368,74.677
		L225.368,74.677z M270.632,458.677c-12.671,12.079-32.593,12.079-45.264,0c-12.494-12.499-12.49-32.761,0.009-45.255
		c12.499-12.494,32.761-12.49,45.255,0.009C283.123,425.927,283.123,446.181,270.632,458.677z M440,276.053
		c-17.673,0-32-14.327-32-32s14.327-32,32-32s32,14.327,32,32S457.673,276.053,440,276.053z"/>
	<path style="fill:#231F20;" d="M288,244.053c0-79.529-64.471-144-144-144s-144,64.471-144,144s64.471,144,144,144
		C223.491,387.96,287.907,323.544,288,244.053z M144,372.053c-70.692,0-128-57.308-128-128s57.308-128,128-128s128,57.308,128,128
		C271.916,314.711,214.658,371.969,144,372.053z"/>
	<path style="fill:#231F20;" d="M77.776,180.173c37.514-37.43,98.246-37.43,135.76,0c3.126,3.124,8.192,3.122,11.316-0.004
		c3.124-3.126,3.122-8.192-0.004-11.316l0,0c-43.762-43.691-114.638-43.691-158.4,0c-3.069,3.178-2.981,8.243,0.197,11.312
		c3.1,2.994,8.015,2.994,11.115,0L77.776,180.173z"/>
	<path style="fill:#231F20;" d="M213.536,315.933c-37.514,37.43-98.246,37.43-135.76,0c-3.126-3.124-8.192-3.122-11.316,0.004
		c-3.124,3.126-3.122,8.192,0.004,11.316c43.762,43.691,114.638,43.691,158.4,0c3.07-3.178,2.982-8.242-0.196-11.312
		c-3.1-2.994-8.015-2.994-11.116,0L213.536,315.933z"/>
	<path style="fill:#231F20;" d="M96,244.053c0,26.51,21.49,48,48,48s48-21.49,48-48s-21.49-48-48-48
		C117.501,196.079,96.026,217.554,96,244.053z M176,244.053c0,17.673-14.327,32-32,32s-32-14.327-32-32s14.327-32,32-32
		S176,226.38,176,244.053z"/>
	<circle style="fill:#231F20;" cx="144" cy="244.053" r="16"/>
	<circle style="fill:#231F20;" cx="440" cy="244.053" r="16"/>
	<circle style="fill:#231F20;" cx="248" cy="52.053" r="16"/>
	<path style="fill:#231F20;" d="M200,236.053h16v16h-16V236.053z"/>
	<path style="fill:#231F20;" d="M224,236.053h16v16h-16V236.053z"/>
	<path style="fill:#231F20;" d="M248,236.053h16v16h-16V236.053z"/>
	<path style="fill:#231F20;" d="M296,236.053h16v16h-16V236.053z"/>
	<path style="fill:#231F20;" d="M320,236.053h16v16h-16V236.053z"/>
	<path style="fill:#231F20;" d="M344,236.053h16v16h-16V236.053z"/>
	<path style="fill:#231F20;" d="M368,236.053h16v16h-16V236.053z"/>
</g>
<g>
</g>
<g>
</g>
<g>
</g>
<g>
</g>
<g>
</g>
<g>
</g>
<g>
</g>
<g>
</g>
<g>
</g>
<g>
</g>
<g>
</g>
<g>
</g>
<g>
</g>
<g>
</g>
<g>
</g>
</svg>
