<?xml version="1.0" encoding="iso-8859-1"?>
<!-- Generator: Adobe Illustrator 19.0.0, SVG Export Plug-In . SVG Version: 6.00 Build 0)  -->
<svg version="1.1" id="Capa_1" xmlns="http://www.w3.org/2000/svg" xmlns:xlink="http://www.w3.org/1999/xlink" x="0px" y="0px"
	 viewBox="0 0 480.172 480.172" style="enable-background:new 0 0 480.172 480.172;" xml:space="preserve">
<path style="fill:#ba57ff;" d="M472.084,184.112c-0.023-29.306-19.917-54.864-48.32-62.08c-3.133-32.83-30.701-57.904-63.68-57.92
	c-12.334-0.031-24.406,3.557-34.72,10.32c-11.99-47.099-59.891-75.56-106.99-63.57c-31.232,7.951-55.619,32.338-63.57,63.57
	c-10.314-6.763-22.386-10.351-34.72-10.32c-32.979,0.016-60.547,25.09-63.68,57.92C22.118,130.624,1.29,165.384,9.882,199.67
	c7.147,28.517,32.803,48.498,62.202,48.442h336C443.431,248.112,472.084,219.458,472.084,184.112z"/>
<g>
	<path style="fill:#5fff44;" d="M96.084,472.112h128v-48h-128V472.112z"/>
	<path style="fill:#5fff44;" d="M256.084,472.112h128v-48h-128V472.112z"/>
	<path style="fill:#5fff44;" d="M224.084,352.112h-128v48h128V352.112z"/>
	<path style="fill:#5fff44;" d="M384.084,352.112h-128v48h128V352.112z"/>
	<path style="fill:#5fff44;" d="M224.084,280.112h-128v48h128V280.112z"/>
	<path style="fill:#5fff44;" d="M384.084,280.112h-128v48h128V280.112z"/>
	<path style="fill:#5fff44;" d="M96.084,256.112h128v-48h-128V256.112z"/>
	<path style="fill:#5fff44;" d="M256.084,256.112h128v-48h-128V256.112z"/>
</g>
<g>
	<path style="fill:#231F20;" d="M232.084,480.112h-144v-64h144V480.112z M104.084,464.112h112v-32h-112V464.112z"/>
	<path style="fill:#231F20;" d="M392.084,480.112h-144v-64h144V480.112z M264.084,464.112h112v-32h-112V464.112z"/>
	<path style="fill:#231F20;" d="M232.084,408.112h-144v-64h144V408.112z M104.084,392.112h112v-32h-112V392.112z"/>
	<path style="fill:#231F20;" d="M392.084,408.112h-144v-64h144V408.112z M264.084,392.112h112v-32h-112V392.112z"/>
	<path style="fill:#231F20;" d="M112.084,368.112h16v16h-16V368.112z"/>
	<path style="fill:#231F20;" d="M112.084,440.112h16v16h-16V440.112z"/>
	<path style="fill:#231F20;" d="M280.084,368.112h16v16h-16V368.112z"/>
	<path style="fill:#231F20;" d="M232.084,336.112h-144v-64h144V336.112z M104.084,320.112h112v-32h-112V320.112z"/>
	<path style="fill:#231F20;" d="M392.084,336.112h-144v-64h144V336.112z M264.084,320.112h112v-32h-112V320.112z"/>
	<path style="fill:#231F20;" d="M112.084,296.112h16v16h-16V296.112z"/>
	<path style="fill:#231F20;" d="M280.084,296.112h16v16h-16V296.112z"/>
	<path style="fill:#231F20;" d="M232.084,264.112h-144v-64h144V264.112z M104.084,248.112h112v-32h-112V248.112z"/>
	<path style="fill:#231F20;" d="M392.084,264.112h-144v-64h144V264.112z M264.084,248.112h112v-32h-112V248.112z"/>
	<path style="fill:#231F20;" d="M112.084,224.112h16v16h-16V224.112z"/>
	<path style="fill:#231F20;" d="M280.084,224.112h16v16h-16V224.112z"/>
	<path style="fill:#231F20;" d="M280.084,440.112h16v16h-16V440.112z"/>
	<path style="fill:#231F20;" d="M408.084,256.112c-4.418,0-8-3.582-8-8s3.582-8,8-8c30.928,0.072,56.058-24.941,56.131-55.869
		c0.06-25.746-17.442-48.215-42.419-54.459c-3.281-0.831-5.684-3.638-6-7.008c-2.596-28.793-26.803-50.806-55.712-50.664
		c-10.773-0.027-21.317,3.105-30.328,9.008c-3.692,2.426-8.653,1.4-11.079-2.293c-0.492-0.749-0.855-1.575-1.073-2.443
		c-10.916-42.813-54.472-68.671-97.285-57.755c-28.37,7.233-50.522,29.386-57.755,57.755c-1.077,4.285-5.423,6.886-9.709,5.809
		c-0.869-0.218-1.695-0.581-2.443-1.073c-9.011-5.903-19.555-9.035-30.328-9.008c-28.909-0.142-53.116,21.871-55.712,50.664
		c-0.316,3.37-2.719,6.177-6,7.008c-30.005,7.501-48.248,37.905-40.747,67.909c6.244,24.977,28.713,42.479,54.459,42.419
		c4.418,0,8,3.582,8,8s-3.582,8-8,8C32.32,256.158,0.047,223.961,0,184.196c-0.036-30.993,19.765-58.531,49.156-68.364
		c6.747-39.152,43.956-65.422,83.108-58.674c6.152,1.06,12.14,2.917,17.812,5.522c18.45-49.706,73.701-75.043,123.407-56.593
		c26.204,9.726,46.867,30.39,56.593,56.593c36.102-16.585,78.813-0.762,95.397,35.34c2.606,5.673,4.462,11.66,5.522,17.812
		c37.71,12.616,58.053,53.414,45.436,91.124C466.601,236.341,439.071,256.141,408.084,256.112z"/>
	<path style="fill:#231F20;" d="M184.084,176.112h16v16h-16V176.112z"/>
	<path style="fill:#231F20;" d="M216.084,176.112h16v16h-16V176.112z"/>
	<path style="fill:#231F20;" d="M248.084,176.112h16v16h-16V176.112z"/>
	<path style="fill:#231F20;" d="M280.084,176.112h16v16h-16V176.112z"/>
	<path style="fill:#231F20;" d="M312.084,176.112h16v16h-16V176.112z"/>
	<path style="fill:#231F20;" d="M344.084,176.112h16v16h-16V176.112z"/>
	<path style="fill:#231F20;" d="M376.084,176.112h16v16h-16V176.112z"/>
	<path style="fill:#231F20;" d="M152.084,176.112h16v16h-16V176.112z"/>
	<path style="fill:#231F20;" d="M120.084,176.112h16v16h-16V176.112z"/>
	<path style="fill:#231F20;" d="M88.084,176.112h16v16h-16V176.112z"/>
</g>
<g>
</g>
<g>
</g>
<g>
</g>
<g>
</g>
<g>
</g>
<g>
</g>
<g>
</g>
<g>
</g>
<g>
</g>
<g>
</g>
<g>
</g>
<g>
</g>
<g>
</g>
<g>
</g>
<g>
</g>
</svg>
